<svg width="100" height="100" viewBox="0 0 100 100" fill="none" xmlns="http://www.w3.org/2000/svg">
<path d="M37.5 44.7917C31.1667 44.7917 26.0417 39.6667 26.0417 33.3333C26.0417 27 31.1667 21.875 37.5 21.875C43.8333 21.875 48.9583 27 48.9583 33.3333C48.9583 39.6667 43.8333 44.7917 37.5 44.7917ZM37.5 28.125C34.625 28.125 32.2917 30.4583 32.2917 33.3333C32.2917 36.2083 34.625 38.5417 37.5 38.5417C40.375 38.5417 42.7083 36.2083 42.7083 33.3333C42.7083 30.4583 40.375 28.125 37.5 28.125Z" fill="#979199"/>
<path d="M62.5 94.7914H37.5C14.875 94.7914 5.20834 85.1247 5.20834 62.4997V37.4997C5.20834 14.8747 14.875 5.20801 37.5 5.20801H54.1667C55.875 5.20801 57.2917 6.62467 57.2917 8.33301C57.2917 10.0413 55.875 11.458 54.1667 11.458H37.5C18.2917 11.458 11.4583 18.2913 11.4583 37.4997V62.4997C11.4583 81.708 18.2917 88.5414 37.5 88.5414H62.5C81.7084 88.5414 88.5417 81.708 88.5417 62.4997V41.6663C88.5417 39.958 89.9584 38.5413 91.6667 38.5413C93.375 38.5413 94.7917 39.958 94.7917 41.6663V62.4997C94.7917 85.1247 85.125 94.7914 62.5 94.7914Z" fill="#979199"/>
<path d="M75 36.4578C73.2917 36.4578 71.875 35.0411 71.875 33.3328V8.33275C71.875 7.08275 72.625 5.91609 73.7917 5.45775C74.9583 4.99942 76.2917 5.24942 77.2083 6.12442L85.5417 14.4578C86.75 15.6661 86.75 17.6661 85.5417 18.8744C84.3333 20.0828 82.3333 20.0828 81.125 18.8744L78.125 15.8744V33.3328C78.125 35.0411 76.7083 36.4578 75 36.4578Z" fill="#979199"/>
<path d="M66.6667 19.7926C65.875 19.7926 65.0833 19.501 64.4583 18.876C63.25 17.6676 63.25 15.6676 64.4583 14.4593L72.7917 6.12598C74 4.91764 76 4.91764 77.2083 6.12598C78.4167 7.33431 78.4167 9.33431 77.2083 10.5426L68.875 18.876C68.25 19.501 67.4583 19.7926 66.6667 19.7926Z" fill="#979199"/>
<path d="M11.125 82.082C10.125 82.082 9.12496 81.582 8.54163 80.707C7.58329 79.2904 7.95829 77.332 9.37496 76.3737L29.9166 62.582C34.4166 59.582 40.625 59.9154 44.7083 63.3737L46.0833 64.582C48.1666 66.3737 51.7083 66.3737 53.75 64.582L71.0833 49.707C75.5 45.9154 82.4583 45.9154 86.9166 49.707L93.7083 55.5404C95 56.6654 95.1666 58.6237 94.0416 59.957C92.9166 61.2487 90.9166 61.4154 89.625 60.2904L82.8333 54.457C80.75 52.6654 77.25 52.6654 75.1666 54.457L57.8333 69.332C53.4166 73.1237 46.4583 73.1237 42 69.332L40.625 68.1237C38.7083 66.4987 35.5416 66.332 33.4166 67.7904L12.9166 81.582C12.3333 81.9154 11.7083 82.082 11.125 82.082Z" fill="#979199"/>
</svg>
